<svg aria-hidden="true" style="width:0;height:0;position:absolute;overflow:hidden" xmlns="http://www.w3.org/2000/svg"><defs><symbol id="icon-close-mobile" viewBox="0 0 32 32"><path fill="none" stroke="#fff" style="stroke:var(--color1,#fff)" stroke-linejoin="round" stroke-linecap="round" stroke-width="2.08" d="M24 8 8 24M8 8l16 16"/></symbol><symbol id="icon-close-modal" viewBox="0 0 32 32"><path fill="none" stroke="#fff" style="stroke:var(--color1,#fff)" stroke-linejoin="round" stroke-linecap="round" stroke-width="1.733" d="M24 8 8 24M8 8l16 16"/></symbol><symbol id="icon-facebook" viewBox="0 0 32 32"><path fill="none" stroke="#fff" style="stroke:var(--color1,#fff)" stroke-width=".727" d="M7.273.364h17.455a6.909 6.909 0 0 1 6.909 6.909v17.455a6.909 6.909 0 0 1-6.909 6.909H7.273a6.909 6.909 0 0 1-6.909-6.909V7.273A6.909 6.909 0 0 1 7.273.364z"/><path fill="#fff" style="fill:var(--color1,#fff)" opacity=".8" d="M18.24 8.771h.611v2.291h-.764c-.305 0-.611 0-.764.153s-.153.305-.153.662v.815h1.68v1.935h-1.68v8.4h-2.596v-8.451h-1.375v-1.935h1.375v-.662c0-1.12.153-1.935.458-2.291.458-.662 1.375-.967 2.749-.967.153.051.305.051.458.051z"/></symbol><symbol id="icon-hearth" viewBox="0 0 32 32"><path fill="none" stroke="#fff" style="stroke:var(--color1,#fff)" stroke-linejoin="round" stroke-linecap="round" stroke-width="2.667" d="M27.787 5.48C26.46 4.152 24.626 3.331 22.6 3.331s-3.859.821-5.187 2.149L16 6.893 14.587 5.48A7.335 7.335 0 0 0 4.213 15.854L16 27.641l11.787-11.787c1.328-1.327 2.15-3.161 2.15-5.187s-.822-3.86-2.15-5.187h0z"/></symbol><symbol id="icon-instagram" viewBox="0 0 32 32"><path fill="none" stroke="#fff" style="stroke:var(--color1,#fff)" stroke-width=".727" d="M7.273.364h17.455a6.909 6.909 0 0 1 6.909 6.909v17.455a6.909 6.909 0 0 1-6.909 6.909H7.273a6.909 6.909 0 0 1-6.909-6.909V7.273A6.909 6.909 0 0 1 7.273.364z"/><path fill="#fff" style="fill:var(--color1,#fff)" opacity=".8" d="M24.093 12.663a5.871 5.871 0 0 0-.393-2.042l.014.04a4.192 4.192 0 0 0-2.354-2.368l-.028-.01a5.846 5.846 0 0 0-1.971-.378h-.006c-.87-.039-1.146-.051-3.355-.051s-2.492 0-3.356.051a5.975 5.975 0 0 0-2.018.392l.041-.014a4.186 4.186 0 0 0-2.372 2.35l-.01.028a5.804 5.804 0 0 0-.379 1.968v.006c-.039.87-.051 1.145-.051 3.351s0 2.487.051 3.351a5.94 5.94 0 0 0 .392 2.016l-.014-.041a4.195 4.195 0 0 0 2.355 2.367l.028.01c.63.246 1.298.385 1.977.407.871.039 1.147.05 3.356.05s2.492 0 3.356-.051a5.946 5.946 0 0 0 2.018-.392l-.041.014a4.195 4.195 0 0 0 2.372-2.35l.01-.028a5.923 5.923 0 0 0 .379-1.975c.039-.868.051-1.144.051-3.351-.002-2.205-.002-2.485-.052-3.35zm-8.1 7.493h-.004a4.177 4.177 0 0 1-4.178-4.175 4.177 4.177 0 0 1 4.177-4.175h.005a4.179 4.179 0 0 1 4.182 4.175 4.179 4.179 0 0 1-4.179 4.176h-.003zm4.349-7.531a.973.973 0 1 1 0-1.946h.027a.974.974 0 1 1 0 1.948h-.028.001z"/><path fill="#fff" style="fill:var(--color1,#fff)" opacity=".8" d="M15.995 18.531a2.548 2.548 0 0 0 0-5.096 2.548 2.548 0 0 0-.002 5.096h.002z"/></symbol><symbol id="icon-mobile-menu" viewBox="0 0 32 32"><path style="fill:var(--color1,#fff)" d="M2.667 7.993c0-.733.595-1.327 1.327-1.327h10.68a1.327 1.327 0 1 1 0 2.654H3.994a1.327 1.327 0 0 1-1.327-1.327zm0 8.007c0-.733.595-1.327 1.327-1.327h24.013a1.327 1.327 0 1 1 0 2.654H3.994A1.327 1.327 0 0 1 2.667 16zm1.326 6.68a1.327 1.327 0 1 0 0 2.654h16.013a1.327 1.327 0 1 0 0-2.654H3.993z"/><path fill="none" stroke="#fff" style="stroke:var(--color1,#fff)" stroke-width=".727" d="M7.273.364h17.455a6.909 6.909 0 0 1 6.909 6.909v17.455a6.909 6.909 0 0 1-6.909 6.909H7.273a6.909 6.909 0 0 1-6.909-6.909V7.273A6.909 6.909 0 0 1 7.273.364z"/><path fill="#fff" style="fill:var(--color1,#fff)" opacity=".8" d="M24.093 12.663a5.871 5.871 0 0 0-.393-2.042l.014.04a4.192 4.192 0 0 0-2.354-2.368l-.028-.01a5.895 5.895 0 0 0-1.971-.38h-.006c-.87-.039-1.146-.049-3.355-.049s-2.492 0-3.356.049a5.991 5.991 0 0 0-1.977.38 4.186 4.186 0 0 0-2.372 2.35l-.01.028a5.803 5.803 0 0 0-.379 1.967v.006c-.039.87-.051 1.145-.051 3.351s0 2.487.051 3.351c.013.676.141 1.343.378 1.975a4.19 4.19 0 0 0 2.355 2.368l.028.01c.584.235 1.26.382 1.967.406h.01c.871.039 1.147.051 3.356.051s2.492 0 3.356-.051a5.946 5.946 0 0 0 2.018-.392l-.041.014a4.195 4.195 0 0 0 2.372-2.35l.01-.028a5.918 5.918 0 0 0 .379-1.975c.039-.869.051-1.145.051-3.351-.001-2.205-.001-2.485-.052-3.349zm-8.1 7.493h-.004a4.177 4.177 0 0 1-4.178-4.175 4.177 4.177 0 0 1 4.177-4.175h.005a4.179 4.179 0 0 1 4.182 4.175 4.179 4.179 0 0 1-4.179 4.176h-.003zm4.349-7.531a.973.973 0 1 1 0-1.946h.027a.974.974 0 1 1 0 1.948h-.028.001z"/><path fill="#fff" style="fill:var(--color1,#fff)" opacity=".8" d="M15.995 18.53h.043a2.548 2.548 0 0 0 0-5.096h-.045.002a2.548 2.548 0 0 0-.002 5.096h.002z"/></symbol><symbol id="icon-next" viewBox="0 0 32 32"><path fill="none" stroke="#fff" style="stroke:var(--color1,#fff)" stroke-width=".762" d="M6.857.381h18.286c3.577 0 6.476 2.9 6.476 6.476v18.286a6.475 6.475 0 0 1-6.476 6.476H6.857a6.475 6.475 0 0 1-6.476-6.476V6.857c0-3.577 2.9-6.476 6.476-6.476z"/><path fill="none" stroke="#fff" style="stroke:var(--color1,#fff)" stroke-linejoin="round" stroke-linecap="round" stroke-width=".762" d="M13.714 20.571 18.285 16l-4.571-4.571"/></symbol><symbol id="icon-prewiew" viewBox="0 0 32 32"><path fill="none" stroke="#fff" style="stroke:var(--color1,#fff)" stroke-width=".762" d="M6.857.381h18.286c3.577 0 6.476 2.9 6.476 6.476v18.286a6.475 6.475 0 0 1-6.476 6.476H6.857a6.475 6.475 0 0 1-6.476-6.476V6.857c0-3.577 2.9-6.476 6.476-6.476z"/><path fill="none" stroke="#fff" style="stroke:var(--color1,#fff)" stroke-linejoin="round" stroke-linecap="round" stroke-width=".762" d="M18.286 20.571 13.715 16l4.571-4.571"/></symbol><symbol id="icon-youtube" viewBox="0 0 32 32"><path fill="none" stroke="#fff" style="stroke:var(--color1,#fff)" stroke-width=".727" d="M7.273.364h17.455a6.909 6.909 0 0 1 6.909 6.909v17.455a6.909 6.909 0 0 1-6.909 6.909H7.273a6.909 6.909 0 0 1-6.909-6.909V7.273A6.909 6.909 0 0 1 7.273.364z"/><path fill="#fff" style="fill:var(--color1,#fff)" opacity=".8" d="M21.244 9.636c-.865-.051-2.647-.102-5.345-.102h-.356c-2.596 0-4.327.051-5.193.153-1.171.102-1.985.407-2.444.815-.407.356-.713 1.018-.815 1.884-.051.56-.102 1.731-.102 3.513v.255c0 1.68.051 2.851.153 3.411.153.815.407 1.425.916 1.782.509.407 1.375.662 2.596.764.865.051 2.647.102 5.345.102h.356c2.596 0 4.327-.051 5.193-.153 1.171-.102 1.985-.407 2.444-.815.407-.356.713-1.018.815-1.884.051-.56.102-1.731.102-3.513v-.255c0-1.68-.051-2.851-.153-3.411-.153-.815-.407-1.425-.916-1.782-.509-.407-1.375-.662-2.596-.764zm-1.986 6.262-5.6 3.36v-6.72l5.6 3.36z"/></symbol></defs></svg>