<svg aria-hidden="true" style="position: absolute; width: 0; height: 0; overflow: hidden;" version="1.1" xmlns="http://www.w3.org/2000/svg" xmlns:xlink="http://www.w3.org/1999/xlink">
<defs>
<symbol id="icon-close-mobile" viewBox="0 0 32 32">
<path fill="none" stroke="#fff" style="stroke: var(--color1, #fff)" stroke-linejoin="round" stroke-linecap="round" stroke-miterlimit="4" stroke-width="2.0800" d="M24 8l-16 16M8 8l16 16"></path>
</symbol>
<symbol id="icon-close-modal" viewBox="0 0 32 32">
<path fill="none" stroke="#fff" style="stroke: var(--color1, #fff)" stroke-linejoin="round" stroke-linecap="round" stroke-miterlimit="4" stroke-width="1.7333" d="M24 8l-16 16M8 8l16 16"></path>
</symbol>
<symbol id="icon-facebook" viewBox="0 0 32 32">
<path fill="#fff" style="fill: var(--color1, #fff)" opacity="0.8" d="M19.52 4.64h0.96v3.6h-1.2c-0.48 0-0.96 0-1.2 0.24s-0.24 0.48-0.24 1.040v1.28h2.64v3.040h-2.64v13.2h-4.080v-13.28h-2.16v-3.040h2.16v-1.040c0-1.76 0.24-3.040 0.72-3.6 0.72-1.040 2.16-1.52 4.32-1.52 0.24 0.080 0.48 0.080 0.72 0.080z"></path>
</symbol>
<symbol id="icon-hearth" viewBox="0 0 32 32">
<path fill="none" stroke="#fff" style="stroke: var(--color1, #fff)" stroke-linejoin="round" stroke-linecap="round" stroke-miterlimit="4" stroke-width="2.6667" d="M27.787 5.48c-1.327-1.328-3.161-2.149-5.187-2.149s-3.859 0.821-5.187 2.149l-1.413 1.413-1.413-1.413c-1.327-1.327-3.161-2.148-5.187-2.148-4.051 0-7.335 3.284-7.335 7.335 0 2.026 0.821 3.859 2.148 5.187l11.787 11.787 11.787-11.787c1.328-1.327 2.15-3.161 2.15-5.187s-0.822-3.86-2.15-5.187l-0-0z"></path>
</symbol>
<symbol id="icon-instagram" viewBox="0 0 32 32">
<path fill="#fff" style="fill: var(--color1, #fff)" opacity="0.8" d="M28.718 10.755c-0.015-1.134-0.233-2.213-0.617-3.208l0.021 0.063c-0.682-1.722-2.021-3.059-3.7-3.722l-0.044-0.015c-0.921-0.355-1.985-0.571-3.098-0.594l-0.010-0c-1.367-0.062-1.801-0.080-5.272-0.080-3.472 0-3.917 0-5.274 0.080-1.122 0.023-2.186 0.239-3.171 0.616l0.064-0.022c-1.723 0.678-3.062 2.015-3.727 3.693l-0.015 0.044c-0.357 0.919-0.574 1.982-0.595 3.093l-0 0.009c-0.062 1.367-0.080 1.799-0.080 5.265 0 3.465 0 3.909 0.080 5.265 0.021 1.062 0.222 2.11 0.594 3.104 0.682 1.721 2.022 3.057 3.701 3.719l0.044 0.015c0.917 0.37 1.979 0.602 3.091 0.64l0.016 0c1.369 0.061 1.802 0.079 5.274 0.079s3.917 0 5.274-0.080c1.122-0.023 2.187-0.239 3.172-0.616l-0.064 0.022c1.722-0.68 3.061-2.016 3.727-3.693l0.016-0.044c0.374-0.994 0.575-2.040 0.595-3.104 0.062-1.365 0.080-1.798 0.080-5.265-0.002-3.465-0.002-3.905-0.082-5.264zM15.989 22.531c-0.002 0-0.004 0-0.006 0-3.625 0-6.563-2.937-6.566-6.561v-0c0.002-3.624 2.94-6.561 6.565-6.561 0.002 0 0.005 0 0.007 0h-0c3.629 0 6.571 2.937 6.571 6.56-0.003 3.625-2.942 6.562-6.567 6.562-0.002 0-0.003 0-0.005 0h0zM22.823 10.696c-0.845 0-1.53-0.685-1.53-1.53s0.685-1.53 1.53-1.53v0c0.845 0 1.53 0.685 1.53 1.53s-0.685 1.53-1.53 1.53v0z"></path>
<path fill="#fff" style="fill: var(--color1, #fff)" opacity="0.8" d="M15.992 19.977c2.212 0 4.005-1.793 4.005-4.005s-1.793-4.005-4.005-4.005v0c-2.182 0.038-3.937 1.816-3.937 4.004s1.755 3.966 3.933 4.004l0.004 0z"></path>
</symbol>
<symbol id="icon-mobile-menu" viewBox="0 0 32 32">
<path  style="fill: var(--color1, #fff)" d="M2.667 7.993c0-0.733 0.595-1.327 1.327-1.327h10.68c0.733 0 1.327 0.594 1.327 1.327s-0.594 1.327-1.327 1.327h-10.68c-0.733 0-1.327-0.594-1.327-1.327v0zM2.667 16c0-0.733 0.595-1.327 1.327-1.327h24.013c0.733 0 1.327 0.594 1.327 1.327s-0.594 1.327-1.327 1.327h-24.013c-0.733 0-1.327-0.594-1.327-1.327v0zM3.993 22.68c-0.733 0-1.327 0.594-1.327 1.327s0.594 1.327 1.327 1.327h16.013c0.733 0 1.327-0.594 1.327-1.327s-0.594-1.327-1.327-1.327h-16.013z"></path>
<path fill="none" stroke="#fff" style="stroke: var(--color1, #fff)" stroke-linejoin="miter" stroke-linecap="butt" stroke-miterlimit="4" stroke-width="0.7273" d="M7.273 0.364h17.455c3.816 0 6.909 3.093 6.909 6.909v17.455c0 3.816-3.093 6.909-6.909 6.909h-17.455c-3.816 0-6.909-3.093-6.909-6.909v-17.455c0-3.816 3.093-6.909 6.909-6.909z"></path>
<path fill="#fff" style="fill: var(--color1, #fff)" opacity="0.8" d="M24.093 12.663c-0.010-0.722-0.148-1.408-0.393-2.042l0.014 0.040c-0.434-1.096-1.286-1.946-2.354-2.368l-0.028-0.010c-0.586-0.226-1.263-0.364-1.971-0.38l-0.006-0c-0.87-0.039-1.146-0.049-3.355-0.049s-2.492 0-3.356 0.049c-0.676 0.015-1.344 0.142-1.977 0.38-1.097 0.432-1.949 1.282-2.372 2.35l-0.010 0.028c-0.227 0.585-0.365 1.261-0.379 1.967l-0 0.006c-0.039 0.87-0.051 1.145-0.051 3.351s0 2.487 0.051 3.351c0.013 0.676 0.141 1.343 0.378 1.975 0.434 1.096 1.286 1.946 2.355 2.368l0.028 0.010c0.584 0.235 1.26 0.382 1.967 0.406l0.010 0c0.871 0.039 1.147 0.051 3.356 0.051s2.492 0 3.356-0.051c0.714-0.014 1.392-0.152 2.018-0.392l-0.041 0.014c1.096-0.432 1.948-1.283 2.372-2.35l0.010-0.028c0.238-0.632 0.366-1.298 0.379-1.975 0.039-0.869 0.051-1.145 0.051-3.351-0.001-2.205-0.001-2.485-0.052-3.349zM15.993 20.156c-0.001 0-0.002 0-0.004 0-2.307 0-4.177-1.869-4.178-4.175v-0c0.001-2.306 1.871-4.175 4.177-4.175 0.002 0 0.003 0 0.005 0h-0c2.309 0 4.182 1.869 4.182 4.175-0.002 2.307-1.872 4.176-4.179 4.176-0.001 0-0.002 0-0.003 0h0zM20.342 12.625c-0.538 0-0.973-0.436-0.973-0.973s0.436-0.973 0.973-0.973v0c0.008-0 0.017-0 0.027-0 0.538 0 0.974 0.436 0.974 0.974s-0.436 0.974-0.974 0.974c-0.009 0-0.019-0-0.028-0l0.001 0z"></path>======
<path fill="#fff" style="fill: var(--color1, #fff)" opacity="0.8" d="M15.995 18.53c0.013 0 0.028 0 0.043 0 1.407 0 2.548-1.141 2.548-2.548s-1.141-2.548-2.548-2.548c-0.015 0-0.030 0-0.045 0l0.002-0c-1.389 0.024-2.505 1.156-2.505 2.548s1.117 2.524 2.503 2.548l0.002 0z"></path>
</symbol>
<symbol id="icon-next" viewBox="0 0 32 32">
<path fill="none" stroke="#fff" style="stroke: var(--color1, #fff)" stroke-linejoin="miter" stroke-linecap="butt" stroke-miterlimit="4" stroke-width="0.7619" d="M6.857 0.381h18.286c3.577 0 6.476 2.9 6.476 6.476v18.286c0 3.577-2.899 6.476-6.476 6.476h-18.286c-3.577 0-6.476-2.899-6.476-6.476v-18.286c0-3.577 2.9-6.476 6.476-6.476z"></path>
<path fill="none" stroke="#fff" style="stroke: var(--color1, #fff)" stroke-linejoin="round" stroke-linecap="round" stroke-miterlimit="4" stroke-width="0.7619" d="M13.714 20.571l4.571-4.571-4.571-4.571"></path>
</symbol>
<symbol id="icon-prewiew" viewBox="0 0 32 32">
<path fill="none" stroke="#fff" style="stroke: var(--color1, #fff)" stroke-linejoin="miter" stroke-linecap="butt" stroke-miterlimit="4" stroke-width="0.7619" d="M6.857 0.381h18.286c3.577 0 6.476 2.9 6.476 6.476v18.286c0 3.577-2.899 6.476-6.476 6.476h-18.286c-3.577 0-6.476-2.899-6.476-6.476v-18.286c0-3.577 2.9-6.476 6.476-6.476z"></path>
<path fill="none" stroke="#fff" style="stroke: var(--color1, #fff)" stroke-linejoin="round" stroke-linecap="round" stroke-miterlimit="4" stroke-width="0.7619" d="M18.286 20.571l-4.571-4.571 4.571-4.571"></path>
</symbol>
<symbol id="icon-youtube" viewBox="0 0 32 32">
<path fill="#fff" style="fill: var(--color1, #fff)" opacity="0.8" d="M24.24 6c-1.36-0.080-4.16-0.16-8.4-0.16h-0.56c-4.080 0-6.8 0.080-8.16 0.24-1.84 0.16-3.12 0.64-3.84 1.28-0.64 0.56-1.12 1.6-1.28 2.96-0.080 0.88-0.16 2.72-0.16 5.52v0.4c0 2.64 0.080 4.48 0.24 5.36 0.24 1.28 0.64 2.24 1.44 2.8 0.8 0.64 2.16 1.040 4.080 1.2 1.36 0.080 4.16 0.16 8.4 0.16h0.56c4.080 0 6.8-0.080 8.16-0.24 1.84-0.16 3.12-0.64 3.84-1.28 0.64-0.56 1.12-1.6 1.28-2.96 0.080-0.88 0.16-2.72 0.16-5.52v-0.4c0-2.64-0.080-4.48-0.24-5.36-0.24-1.28-0.64-2.24-1.44-2.8-0.8-0.64-2.16-1.040-4.080-1.2zM21.12 15.84l-8.8 5.28v-10.56l8.8 5.28z"></path>
</symbol>
</defs>
</svg>


